*************The.Eagle.2011.R5.XvID-MARCUSFILIPPE*************

Release name                     : The.Eagle.2011.R5.XvID-MARCUSFILIPPE
IMDB                             : http://www.imdb.com/title/tt1034389/
Format                           : AVI
Format/Info                      : Audio Video Interleave
File size                        : 703 MiB
Duration                         : 1h 49mn
Overall bit rate                 : 898 Kbps
Writing application              : VirtualDubMod 1.5.10.2 (build 2542/release)
Writing library                  : VirtualDubMod build 2542/release

Video
ID                               : 0
Format                           : MPEG-4 Visual
Format profile                   : Advanced Simple@L5
Format settings, BVOP            : Yes
Format settings, QPel            : No
Format settings, GMC             : No warppoints
Format settings, Matrix          : Default (H.263)
Muxing mode                      : Packed bitstream
Codec ID                         : XVID
Codec ID/Hint                    : XviD
Duration                         : 1h 49mn
Bit rate                         : 760 Kbps
Width                            : 632 pixels
Height                           : 266 pixels
Display aspect ratio             : 2.35:1
Frame rate                       : 25.000 fps
Color space                      : YUV
Chroma subsampling               : 4:2:0
Bit depth                        : 8 bits
Scan type                        : Progressive
Compression mode                 : Lossy
Bits/(Pixel*Frame)               : 0.181
Stream size                      : 595 MiB (85%)
Writing library                  : XviD 62

Audio
ID                               : 1
Format                           : MPEG Audio
Format version                   : Version 1
Format profile                   : Layer 3
Mode                             : Joint stereo
Mode extension                   : MS Stereo
Codec ID                         : 55
Codec ID/Hint                    : MP3
Duration                         : 1h 49mn
Bit rate mode                    : Constant
Bit rate                         : 128 Kbps
Channel(s)                       : 2 channels
Sampling rate                    : 44.1 KHz
Compression mode                 : Lossy
Stream size                      : 100 MiB (14%)
Alignment                        : Split accross interleaves
Interleave, duration             : 40 ms (1.00 video frame)
Interleave, preload duration     : 500 ms
Writing library                  : LAME3.98r
Encoding settings                : -m j -V 4 -q 2 -lowpass 17 -b 128

 
http://bayimg.com/naHCeaADj 
http://bayimg.com/naHcFaAdj 
http://bayimg.com/NaHCgaaDj 
http://bayimg.com/NahcHAaDJ